<?xml version="1.0" encoding="utf-8"?>
<!-- Generator: Adobe Illustrator 23.0.1, SVG Export Plug-In . SVG Version: 6.00 Build 0)  -->
<svg version="1.1" xmlns="http://www.w3.org/2000/svg" xmlns:xlink="http://www.w3.org/1999/xlink" x="0px" y="0px"
	 viewBox="0 0 655 242" style="enable-background:new 0 0 655 242;" xml:space="preserve">
<style type="text/css">
	.st0{fill:#1055A3;}
	.st1{fill:#4092EE;}
</style>
<g id="Lager_1">
	<g>
		<path class="st0" d="M45.68,68.57v53.94H0.44V0.71H50.9l29.58,53.94V0.71h45.24v121.8H75.26L45.68,68.57z"/>
		<path class="st0" d="M261.44,61.61c0,8.59-1.65,16.6-4.96,24.01c-3.31,7.42-7.95,13.89-13.92,19.41
			c-5.98,5.52-13.14,9.84-21.49,12.97c-8.35,3.12-17.52,4.68-27.49,4.68c-9.98,0-19.14-1.56-27.49-4.68
			c-8.35-3.12-15.52-7.45-21.49-12.97c-5.98-5.52-10.61-11.99-13.92-19.41c-3.31-7.42-4.96-15.42-4.96-24.01
			c0-8.59,1.65-16.59,4.96-24.01c3.31-7.42,7.94-13.89,13.92-19.41c5.97-5.52,13.14-9.84,21.49-12.97
			c8.35-3.12,17.51-4.69,27.49-4.69c9.98,0,19.14,1.56,27.49,4.69c8.35,3.12,15.51,7.45,21.49,12.97
			c5.97,5.52,10.61,11.99,13.92,19.41C259.79,45.02,261.44,53.02,261.44,61.61z M212.72,61.61c0-2.66-0.52-5.12-1.57-7.38
			s-2.44-4.2-4.18-5.84c-1.74-1.64-3.77-2.92-6.09-3.84c-2.32-0.92-4.76-1.38-7.31-1.38c-2.67,0-5.16,0.46-7.48,1.38
			c-2.32,0.92-4.35,2.2-6.09,3.84c-1.74,1.64-3.1,3.59-4.09,5.84c-0.99,2.25-1.48,4.71-1.48,7.38c0,2.66,0.49,5.12,1.48,7.38
			c0.98,2.25,2.35,4.2,4.09,5.84c1.74,1.64,3.77,2.92,6.09,3.84c2.32,0.92,4.81,1.38,7.48,1.38c2.55,0,4.99-0.46,7.31-1.38
			c2.32-0.92,4.35-2.2,6.09-3.84c1.74-1.64,3.13-3.59,4.18-5.84S212.72,64.28,212.72,61.61z"/>
		<path class="st0" d="M329.3,122.51l-20.88-40.02h-1.74v40.02h-45.24V0.71c4.76,0,9.92,0,15.49,0c4.76,0,10.12,0,16.1,0
			c5.97,0,12.27,0,18.88,0c9.51,0,17.78,1.02,24.79,3.06c7.02,2.04,12.82,4.88,17.4,8.5c4.58,3.63,7.97,8.02,10.18,13.18
			c2.2,5.16,3.31,10.8,3.31,16.92c0,6.24-0.81,11.45-2.44,15.64c-1.63,4.19-3.42,7.6-5.39,10.2c-2.32,3.06-4.93,5.5-7.83,7.31
			l29.58,46.98H329.3z M311.9,51.17c3.02,0,5.51-0.88,7.48-2.66c1.97-1.77,2.96-3.93,2.96-6.48c0-2.54-0.99-4.7-2.96-6.48
			c-1.97-1.77-4.47-2.66-7.48-2.66h-5.22v18.27H311.9z"/>
		<path class="st0" d="M492.86,61.61c0,9.13-1.45,17.42-4.35,24.87c-2.9,7.44-7.25,13.84-13.05,19.2
			c-5.8,5.36-13.05,9.5-21.75,12.43c-8.7,2.93-18.85,4.4-30.45,4.4c-6.96,0-13.57,0-19.84,0c-6.26,0-11.83,0-16.7,0
			c-5.57,0-10.79-0.37-15.66-1.11V0.71c4.87,0,10.09,0,15.66,0c4.87,0,10.44,0,16.7,0c6.26,0,12.88,0,19.84,0
			c11.6,0,21.75,1.47,30.45,4.4c8.7,2.93,15.95,7.08,21.75,12.44c5.8,5.36,10.15,11.76,13.05,19.2
			C491.4,44.19,492.86,52.48,492.86,61.61z M423.26,84.93c6.61,0,11.74-1.89,15.4-5.68s5.48-9.7,5.48-17.72
			c0-8.02-1.83-13.93-5.48-17.72s-8.79-5.69-15.4-5.69h-6.96v46.81H423.26z"/>
		<path class="st0" d="M538.09,122.51h-45.24V0.71h45.24V122.51z"/>
		<path class="st0" d="M538.09,61.61c0-8.59,1.65-16.59,4.96-24.01c3.31-7.42,7.83-13.89,13.57-19.41
			c5.74-5.52,12.53-9.84,20.36-12.97c7.83-3.12,16.33-4.69,25.49-4.69c8.35,0,15.54,1.02,21.58,3.04
			c6.03,2.03,11.08,4.21,15.14,6.53c4.64,2.9,8.64,6.09,12.01,9.57l-20.88,32.21c-2.09-1.58-4.35-3.01-6.79-4.28
			c-2.09-1.16-4.5-2.19-7.22-3.09c-2.73-0.9-5.6-1.35-8.61-1.35c-6.15,0-11.17,1.72-15.05,5.15c-3.89,3.43-5.83,7.87-5.83,13.29
			c0,5.43,1.94,9.86,5.83,13.29c3.89,3.43,8.9,5.15,15.05,5.15c3.02,0,5.89-0.41,8.61-1.22c2.72-0.81,5.13-1.78,7.22-2.89
			c2.44-1.22,4.7-2.64,6.79-4.26l20.88,31.87c-3.37,3.6-7.37,6.79-12.01,9.57c-4.06,2.44-9.11,4.64-15.14,6.61
			c-6.03,1.97-13.22,2.96-21.58,2.96c-9.17,0-17.66-1.56-25.49-4.68c-7.83-3.12-14.62-7.45-20.36-12.97
			c-5.74-5.52-10.27-11.99-13.57-19.41C539.75,78.21,538.09,70.2,538.09,61.61z"/>
	</g>
	<g>
		<path class="st1" d="M42.52,207.94h48.3v32.2H0.66v-112.7H87.6v32.2H42.52v8.05h41.86v32.2H42.52V207.94z"/>
		<path class="st1" d="M123.82,207.29c2.04,0,3.62-0.48,4.75-1.45s1.69-2.01,1.69-3.13c0-1.32-1.07-2.46-3.22-3.43
			c-2.15-0.97-4.83-2.03-8.05-3.2c-3.22-1.17-6.71-2.57-10.46-4.19c-3.76-1.62-7.25-3.76-10.46-6.4c-3.22-2.64-5.9-5.89-8.05-9.75
			c-2.15-3.86-3.22-8.59-3.22-14.18c0-4.37,1.07-8.61,3.22-12.73c2.15-4.12,5.21-7.77,9.18-10.97c3.97-3.2,8.77-5.77,14.41-7.7
			c5.64-1.93,11.99-2.9,19.08-2.9c7.3,0,13.63,0.94,19,2.82c5.37,1.88,9.87,3.89,13.52,6.04c4.29,2.68,7.94,5.63,10.95,8.85
			l-15.29,23.64c-1.93-1.52-4.03-2.88-6.28-4.1c-1.93-1.11-4.16-2.1-6.68-2.96c-2.52-0.86-5.18-1.29-7.97-1.29
			c-2.04,0-3.62,0.48-4.75,1.45c-1.13,0.97-1.69,2.01-1.69,3.12c0,1.32,1.07,2.46,3.22,3.43c2.15,0.97,4.83,2.03,8.05,3.2
			c3.22,1.17,6.71,2.59,10.46,4.27c3.76,1.68,7.25,3.81,10.46,6.4c3.22,2.59,5.9,5.82,8.05,9.68c2.15,3.86,3.22,8.59,3.22,14.17
			c0,4.37-1.07,8.61-3.22,12.73c-2.15,4.12-5.21,7.78-9.18,10.98c-3.97,3.2-8.77,5.77-14.41,7.7c-5.64,1.93-11.99,2.9-19.08,2.9
			c-8.91,0-16.5-0.99-22.78-2.98c-6.28-1.99-11.46-4.21-15.54-6.68c-4.72-2.79-8.59-6.01-11.59-9.66l15.29-23.17
			c2.25,1.85,4.77,3.45,7.57,4.81c2.47,1.17,5.37,2.24,8.69,3.21C116.04,206.81,119.74,207.29,123.82,207.29z"/>
		<path class="st1" d="M170.51,183.79c0-7.95,1.53-15.35,4.59-22.22c3.06-6.86,7.25-12.85,12.56-17.96
			c5.31-5.11,11.59-9.11,18.84-12c7.25-2.89,15.11-4.34,23.59-4.34c7.73,0,14.38,0.94,19.96,2.82c5.58,1.88,10.25,3.89,14.01,6.04
			c4.29,2.68,7.99,5.63,11.11,8.85l-19.32,29.81c-1.93-1.47-4.02-2.79-6.28-3.96c-1.93-1.07-4.16-2.03-6.68-2.86
			c-2.52-0.83-5.18-1.25-7.97-1.25c-5.69,0-10.33,1.59-13.93,4.76c-3.6,3.18-5.39,7.28-5.39,12.3c0,5.03,1.8,9.13,5.39,12.3
			c3.59,3.18,8.24,4.76,13.93,4.76c2.79,0,5.45-0.37,7.97-1.13c2.52-0.75,4.75-1.64,6.68-2.68c2.25-1.13,4.35-2.44,6.28-3.94
			l19.32,29.49c-3.11,3.33-6.82,6.28-11.11,8.85c-3.76,2.25-8.43,4.29-14.01,6.12c-5.58,1.83-12.24,2.74-19.96,2.74
			c-8.48,0-16.34-1.44-23.59-4.33c-7.24-2.89-13.52-6.89-18.84-12s-9.5-11.1-12.56-17.96C172.04,199.14,170.51,191.74,170.51,183.79
			z"/>
		<path class="st1" d="M351.64,127.44c0,0.11,0.48,1.8,1.45,5.07c0.97,3.28,2.23,7.57,3.78,12.88c1.55,5.31,3.33,11.35,5.31,18.11
			c1.98,6.76,4,13.63,6.04,20.61c4.83,16.53,10.3,35.21,16.42,56.03h-46.69l-3.22-16.1H313.8l-3.22,16.1h-46.69l33.01-112.7H351.64z
			 M329.9,198.28l-5.64-28.98l-5.63,28.98H329.9z"/>
		<path class="st1" d="M428.11,127.44c8.8,0,16.45,0.95,22.94,2.84c6.49,1.89,11.86,4.52,16.1,7.88c4.24,3.37,7.38,7.44,9.42,12.22
			c2.04,4.78,3.06,10.02,3.06,15.69c0,5.68-0.99,10.91-2.98,15.69c-1.99,4.78-4.83,8.86-8.53,12.22c-3.7,3.37-8.24,5.99-13.6,7.89
			c-5.37,1.89-11.49,2.84-18.35,2.84c-1.61,0-3.28,0-4.99,0c-1.72,0-3.27,0-4.67,0c-1.72,0-3.33-0.24-4.83-0.72v36.14h-41.86v-112.7
			c4.51,0,9.34,0,14.49,0c4.51,0,9.66,0,15.46,0C415.55,127.44,421.67,127.44,428.11,127.44z M428.11,174.13
			c2.79,0,5.1-0.82,6.92-2.46c1.82-1.64,2.74-3.64,2.74-5.99c0-2.35-0.91-4.35-2.74-5.99c-1.83-1.64-4.13-2.46-6.92-2.46h-6.44
			v16.91H428.11z"/>
		<path class="st1" d="M519.88,207.94h48.3v32.2h-90.16v-112.7h86.94v32.2h-45.08v8.05h41.86v32.2h-41.86V207.94z"/>
		<path class="st1" d="M601.18,207.29c2.04,0,3.62-0.48,4.75-1.45s1.69-2.01,1.69-3.13c0-1.32-1.07-2.46-3.22-3.43
			c-2.15-0.97-4.83-2.03-8.05-3.2c-3.22-1.17-6.71-2.57-10.46-4.19c-3.76-1.62-7.25-3.76-10.47-6.4c-3.22-2.64-5.9-5.89-8.05-9.75
			c-2.15-3.86-3.22-8.59-3.22-14.18c0-4.37,1.07-8.61,3.22-12.73c2.15-4.12,5.21-7.77,9.18-10.97c3.97-3.2,8.77-5.77,14.41-7.7
			c5.63-1.93,11.99-2.9,19.08-2.9c7.3,0,13.63,0.94,19,2.82c5.37,1.88,9.87,3.89,13.52,6.04c4.29,2.68,7.94,5.63,10.95,8.85
			l-15.29,23.64c-1.93-1.52-4.02-2.88-6.28-4.1c-1.93-1.11-4.16-2.1-6.68-2.96c-2.52-0.86-5.18-1.29-7.97-1.29
			c-2.04,0-3.62,0.48-4.75,1.45c-1.13,0.97-1.69,2.01-1.69,3.12c0,1.32,1.07,2.46,3.22,3.43c2.15,0.97,4.83,2.03,8.05,3.2
			c3.22,1.17,6.71,2.59,10.46,4.27c3.76,1.68,7.25,3.81,10.46,6.4c3.22,2.59,5.9,5.82,8.05,9.68c2.15,3.86,3.22,8.59,3.22,14.17
			c0,4.37-1.07,8.61-3.22,12.73c-2.15,4.12-5.21,7.78-9.18,10.98c-3.97,3.2-8.77,5.77-14.41,7.7c-5.63,1.93-12,2.9-19.08,2.9
			c-8.91,0-16.5-0.99-22.78-2.98c-6.28-1.99-11.46-4.21-15.54-6.68c-4.72-2.79-8.59-6.01-11.59-9.66l15.29-23.17
			c2.25,1.85,4.77,3.45,7.57,4.81c2.47,1.17,5.37,2.24,8.69,3.21C593.4,206.81,597.1,207.29,601.18,207.29z"/>
	</g>
</g>
<g id="Lager_2">
</g>
</svg>
